<svg id="Warstwa_1" data-name="Warstwa 1" xmlns="http://www.w3.org/2000/svg" width="29" height="33.53" viewBox="0 0 29 33.53"><title>hotel</title><path d="M24.3658,4.5455a13.9779,13.9779,0,0,0-19.5949,0,13.5667,13.5667,0,0,0,0,19.3545l8.841,8.733a1.3641,1.3641,0,0,0,1.9122,0L24.3658,23.9A13.5687,13.5687,0,0,0,24.3658,4.5455Z" fill="#0a57a3" stroke="#fff" stroke-miterlimit="10" stroke-width="0.5219"/><path d="M21.9269,21.452a10.4991,10.4991,0,0,1-14.7182,0,10.1907,10.1907,0,0,1,0-14.5373,10.4972,10.4972,0,0,1,14.7174,0A10.19,10.19,0,0,1,21.9269,21.452Z" fill="#ecf0f1"/><path d="M7.7417,6.69H21.3944V20.1757H7.7417Z" fill="none"/><path d="M12.2235,14.1287a1.4055,1.4055,0,1,0-1.4227-1.4053A1.4122,1.4122,0,0,0,12.2235,14.1287Zm5.6911-2.8107H14.1205v3.2791h-3.794V10.3812H9.378v7.0266h.9485V16.0025h8.5366v1.4053h.9485v-4.216A1.885,1.885,0,0,0,17.9146,11.318Z" fill="#0a57a3"/></svg>