<svg id="Warstwa_1" data-name="Warstwa 1" xmlns="http://www.w3.org/2000/svg" width="38.8075" height="58.8113" viewBox="0 0 38.8075 58.8113"><title>inne_01</title><circle cx="5.9252" cy="5.2472" r="3.6687" fill="#6d6d6d"/><rect x="5.1277" y="7.9445" width="1.7546" height="49.2883" rx="0.8773" ry="0.8773" fill="#6d6d6d"/><path d="M36.551,21.8433c.003-1.9817-3.8876-2.66-5.9811-5.2022-1.5621-1.8967-1.1968-5.9634-1.1968-5.9634H6.7228L6.64,21.8274h0V21.86h0l.0826,11.17h22.65s-.3653-4.0667,1.1968-5.9635c2.0935-2.5422,5.9841-3.22,5.9811-5.2022Z" fill="#6d6d6d"/><path d="M18.5482,24.9953l4.2186,2.5463-1.1195-4.7989,3.7272-3.2289-4.9081-.4164-1.9182-4.5258L16.63,19.0974l-4.9081.4164,3.7271,3.2289-1.12,4.7989Z" fill="#fff6e9"/></svg>