<svg id="Warstwa_1" data-name="Warstwa 1" xmlns="http://www.w3.org/2000/svg" width="38.8075" height="58.8113" viewBox="0 0 38.8075 58.8113"><title>kraina_01</title><circle cx="5.9252" cy="5.2472" r="3.6687" fill="#64703f"/><rect x="5.1277" y="7.9445" width="1.7546" height="49.2883" rx="0.8773" ry="0.8773" fill="#64703f"/><path d="M36.551,21.8433c.003-1.9817-3.8876-2.66-5.9811-5.2022-1.5621-1.8967-1.1968-5.9634-1.1968-5.9634H6.7228L6.64,21.8274h0V21.86h0l.0826,11.17h22.65s-.3653-4.0667,1.1968-5.9635c2.0935-2.5422,5.9841-3.22,5.9811-5.2022Z" fill="#64703f"/><polygon points="19.731 13.401 17.968 19.168 21.457 19.168 19.731 13.401" fill="#fff6e9"/><polygon points="19.598 18.707 19.36 21.295 20.088 21.295 19.808 18.72 19.598 18.707" fill="#fff6e9"/><polygon points="15.1 13.401 13.337 19.168 16.826 19.168 15.1 13.401" fill="#fff6e9"/><polygon points="14.967 18.707 14.729 21.295 15.457 21.295 15.177 18.72 14.967 18.707" fill="#fff6e9"/><polygon points="10.701 13.401 8.937 19.168 12.427 19.168 10.701 13.401" fill="#fff6e9"/><polygon points="10.568 18.707 10.33 21.295 11.058 21.295 10.778 18.72 10.568 18.707" fill="#fff6e9"/><path d="M26.3336,29.7378a3.3372,3.3372,0,0,1-1.9017-.5583,1.6375,1.6375,0,0,0-1.0031-.3141,1.5663,1.5663,0,0,0-1.0032.3141,3.5178,3.5178,0,0,1-3.8033,0,1.6378,1.6378,0,0,0-1.0032-.3141,1.5658,1.5658,0,0,0-1.0031.3141,3.3945,3.3945,0,0,1-1.91.5583,3.3372,3.3372,0,0,1-1.9017-.5583,1.7589,1.7589,0,0,0-2.0063,0,3.3942,3.3942,0,0,1-1.91.5583V27.9931a1.5667,1.5667,0,0,0,1.0032-.314,3.3945,3.3945,0,0,1,1.91-.5583,3.3365,3.3365,0,0,1,1.9016.5583,1.76,1.76,0,0,0,2.0064,0,3.3941,3.3941,0,0,1,1.91-.5583,3.3372,3.3372,0,0,1,1.9017.5583,1.6375,1.6375,0,0,0,1.0032.314,1.5838,1.5838,0,0,0,1.0031-.314,3.5178,3.5178,0,0,1,3.8033,0,1.5669,1.5669,0,0,0,1.0032.314Zm0-3.9255a3.3364,3.3364,0,0,1-1.9017-.5583,1.6374,1.6374,0,0,0-1.0031-.314,1.5669,1.5669,0,0,0-1.0032.314,3.5178,3.5178,0,0,1-3.8033,0,1.6377,1.6377,0,0,0-1.0032-.314,1.5664,1.5664,0,0,0-1.0031.314,3.5178,3.5178,0,0,1-3.8033,0A1.6377,1.6377,0,0,0,11.81,24.94a1.5841,1.5841,0,0,0-1.0032.314,3.4515,3.4515,0,0,1-1.9191.5583V24.0677a1.5667,1.5667,0,0,0,1.0032-.314,3.5178,3.5178,0,0,1,3.8033,0,1.6377,1.6377,0,0,0,1.0032.314,1.5664,1.5664,0,0,0,1.0031-.314,3.5178,3.5178,0,0,1,3.8033,0,1.6377,1.6377,0,0,0,1.0032.314,1.5841,1.5841,0,0,0,1.0032-.314,3.5178,3.5178,0,0,1,3.8033,0,1.6374,1.6374,0,0,0,1.0031.314v1.7446Z" fill="#fff6e9"/><polygon points="24.598 13.401 22.834 19.168 26.324 19.168 24.598 13.401" fill="#fff6e9"/><polygon points="24.465 18.707 24.227 21.295 24.954 21.295 24.675 18.72 24.465 18.707" fill="#fff6e9"/></svg>