<svg id="Warstwa_1" data-name="Warstwa 1" xmlns="http://www.w3.org/2000/svg" width="38.8075" height="58.8113" viewBox="0 0 38.8075 58.8113"><title>krolestwo_01</title><circle cx="5.9252" cy="5.2472" r="3.6687" fill="#d8654a"/><rect x="5.1277" y="7.9445" width="1.7546" height="49.2883" rx="0.8773" ry="0.8773" fill="#d8654a"/><path d="M36.551,21.8433c.003-1.9817-3.8876-2.66-5.9811-5.2022-1.5621-1.8967-1.1968-5.9634-1.1968-5.9634H6.7228L6.64,21.8274h0V21.86h0l.0826,11.17h22.65s-.3653-4.0667,1.1968-5.9635c2.0935-2.5422,5.9841-3.22,5.9811-5.2022Z" fill="#d8654a"/><circle cx="19.2341" cy="15.6021" r="1.0355" fill="#fff6e9"/><circle cx="25.6997" cy="18.6196" r="1.0355" fill="#fff6e9"/><circle cx="12.7953" cy="18.5322" r="1.0355" fill="#fff6e9"/><polygon points="24.419 24.572 25.7 18.62 22.195 21.568 19.302 15.949 16.298 21.568 12.905 18.842 14.133 24.572 24.419 24.572" fill="#fff6e9"/><polygon points="14.359 25.629 14.741 27.409 23.808 27.409 24.191 25.629 14.359 25.629" fill="#fff6e9"/></svg>