<svg id="Warstwa_1" data-name="Warstwa 1" xmlns="http://www.w3.org/2000/svg" width="38.8075" height="58.8113" viewBox="0 0 38.8075 58.8113"><title>miasto_01</title><circle cx="5.9252" cy="5.2472" r="3.6687" fill="#a0604a"/><rect x="5.1277" y="7.9445" width="1.7546" height="49.2883" rx="0.8773" ry="0.8773" fill="#a0604a"/><path d="M36.551,21.8433c.003-1.9817-3.8876-2.66-5.9811-5.2022-1.5621-1.8967-1.1968-5.9634-1.1968-5.9634H6.7228L6.64,21.8274h0V21.86h0l.0826,11.17h22.65s-.3653-4.0667,1.1968-5.9635c2.0935-2.5422,5.9841-3.22,5.9811-5.2022Z" fill="#a0604a"/><path d="M20.3733,28.4215V25.27h2.1012v3.1518H25.101V24.2191h1.5759l-5.253-4.7277-5.253,4.7277h1.5759v4.2024Z" fill="#fff6e9"/><path d="M12.2648,20.9941V18.8089h1.4568v2.1852h1.821V18.0805h1.0926l-3.642-3.2777L9.3513,18.0805h1.0926v2.9136Z" fill="#fff6e9"/></svg>