<svg id="Warstwa_1" data-name="Warstwa 1" xmlns="http://www.w3.org/2000/svg" width="38.8075" height="58.8113" viewBox="0 0 38.8075 58.8113"><title>panstwo_01</title><circle cx="5.9252" cy="5.2472" r="3.6687" fill="#496368"/><rect x="5.1277" y="7.9445" width="1.7546" height="49.2883" rx="0.8773" ry="0.8773" fill="#496368"/><path d="M36.551,21.8433c.003-1.9817-3.8876-2.66-5.9811-5.2022-1.5621-1.8967-1.1968-5.9634-1.1968-5.9634H6.7228L6.64,21.8274h0V21.86h0l.0826,11.17h22.65s-.3653-4.0667,1.1968-5.9635c2.0935-2.5422,5.9841-3.22,5.9811-5.2022Z" fill="#496368"/><path d="M23.6077,23.7027V22.4939h.6848V20.41h-.5241v.5836h-.917V20.41h-.7086v.5836h-.917V20.41h-.5181v2.0842h.8159v1.2088h-1.97V19.3939l.7745.0041-2.3017-3.1661v-.9526l2.0879-.376-2.2485-.5587v.2285c-.0011.0054-.0061.009-.0061.0148v1.6726l-2.2961,3.1072.7919.0042v4.3308H14.4791V22.4939h.6848V20.41H14.64v.5836h-.917V20.41h-.7086v.5836h-.917V20.41h-.5181v2.0842h.8159v1.2088h-.7325v5.0854h5.21V27.1416a1.1046,1.1046,0,1,1,2.2092,0v1.6465h5.3354V23.7027Z" fill="#fff6e9"/></svg>