<svg id="Warstwa_1" data-name="Warstwa 1" xmlns="http://www.w3.org/2000/svg" width="38.8075" height="58.8113" viewBox="0 0 38.8075 58.8113"><title>prowincja_01</title><circle cx="5.9252" cy="5.2472" r="3.6687" fill="#c4772e"/><rect x="5.1277" y="7.9445" width="1.7546" height="49.2883" rx="0.8773" ry="0.8773" fill="#c4772e"/><path d="M36.551,21.8433c.003-1.9817-3.8876-2.66-5.9811-5.2022-1.5621-1.8967-1.1968-5.9634-1.1968-5.9634H6.7228L6.64,21.8274h0V21.86h0l.0826,11.17h22.65s-.3653-4.0667,1.1968-5.9635c2.0935-2.5422,5.9841-3.22,5.9811-5.2022Z" fill="#c4772e"/><path d="M18.7246,13.269l-2.27,3.0272L18.18,18.5969l-.9687.7265c-1.0232-1.3622-2.7245-3.6326-2.7245-3.6326l-3.6326,4.8435h13.32Z" fill="#fff6e9"/><polygon points="24.399 22.276 22.636 28.043 26.125 28.043 24.399 22.276" fill="#fff6e9"/><polygon points="24.266 27.582 24.028 30.17 24.756 30.17 24.476 27.595 24.266 27.582" fill="#fff6e9"/><polygon points="20 22.276 18.236 28.043 21.726 28.043 20 22.276" fill="#fff6e9"/><polygon points="19.867 27.582 19.629 30.17 20.357 30.17 20.077 27.595 19.867 27.582" fill="#fff6e9"/><polygon points="15.369 22.276 13.605 28.043 17.095 28.043 15.369 22.276" fill="#fff6e9"/><polygon points="15.236 27.582 14.998 30.17 15.726 30.17 15.446 27.595 15.236 27.582" fill="#fff6e9"/><polygon points="10.97 22.276 9.206 28.043 12.695 28.043 10.97 22.276" fill="#fff6e9"/><polygon points="10.837 27.582 10.598 30.17 11.326 30.17 11.046 27.595 10.837 27.582" fill="#fff6e9"/></svg>