<svg id="Warstwa_1" data-name="Warstwa 1" xmlns="http://www.w3.org/2000/svg" width="38.8075" height="58.8113" viewBox="0 0 38.8075 58.8113"><title>wyspa_01</title><circle cx="5.9252" cy="5.2472" r="3.6687" fill="#426898"/><rect x="5.1277" y="7.9445" width="1.7546" height="49.2883" rx="0.8773" ry="0.8773" fill="#426898"/><path d="M36.551,21.8433c.003-1.9817-3.8876-2.66-5.9811-5.2022-1.5621-1.8967-1.1968-5.9634-1.1968-5.9634H6.7228L6.64,21.8274h0V21.86h0l.0826,11.17h22.65s-.3653-4.0667,1.1968-5.9635c2.0935-2.5422,5.9841-3.22,5.9811-5.2022Z" fill="#426898"/><path d="M23.8419,14.1285a2.016,2.016,0,0,0-2.037,0,1.4445,1.4445,0,0,1-.7078.2072,1.3162,1.3162,0,0,1-.7077-.2072,2.063,2.063,0,0,0-1.0185-.2762,2.026,2.026,0,0,0-1.0185.2762,1.4,1.4,0,0,1-.7078.2072v.6663a2.0965,2.0965,0,0,0,1.0185-.2762,1.3992,1.3992,0,0,1,.7078-.2072,1.3347,1.3347,0,0,1,.7077.2072,2.0267,2.0267,0,0,0,1.0185.2762,2.0624,2.0624,0,0,0,1.0185-.2762,1.4445,1.4445,0,0,1,.7078-.2072,1.3168,1.3168,0,0,1,.7078.2072,2.037,2.037,0,0,0,1.0185.2762v-.6732A1.3762,1.3762,0,0,1,23.8419,14.1285Z" fill="#fff6e9"/><path d="M16.7888,16.2706a2.016,2.016,0,0,0-2.037,0,1.4444,1.4444,0,0,1-.7078.2071,1.3162,1.3162,0,0,1-.7077-.2071,2.063,2.063,0,0,0-1.0185-.2762,2.026,2.026,0,0,0-1.0185.2762,1.3994,1.3994,0,0,1-.7078.2071v.6664a2.0965,2.0965,0,0,0,1.0185-.2762,1.3982,1.3982,0,0,1,.7078-.2072,1.3339,1.3339,0,0,1,.7077.2072,2.0267,2.0267,0,0,0,1.0185.2762,2.0624,2.0624,0,0,0,1.0185-.2762,1.4445,1.4445,0,0,1,.7078-.2072,1.316,1.316,0,0,1,.7078.2072,2.037,2.037,0,0,0,1.0185.2762v-.6733A1.3761,1.3761,0,0,1,16.7888,16.2706Z" fill="#fff6e9"/><path d="M23.2077,24.0488a5.503,5.503,0,0,0-5.5394-4.6414,5.503,5.503,0,0,0-5.5394,4.6414Z" fill="#fff6e9"/><path d="M23.8419,26.8718a2.016,2.016,0,0,0-2.037,0,1.4445,1.4445,0,0,1-.7078.2072,1.3154,1.3154,0,0,1-.7077-.2072,2.063,2.063,0,0,0-1.0185-.2762,2.026,2.026,0,0,0-1.0185.2762,1.4,1.4,0,0,1-.7078.2072v.6663a2.0965,2.0965,0,0,0,1.0185-.2762,1.3991,1.3991,0,0,1,.7078-.2071,1.3347,1.3347,0,0,1,.7077.2071,2.0267,2.0267,0,0,0,1.0185.2762,2.0624,2.0624,0,0,0,1.0185-.2762,1.4444,1.4444,0,0,1,.7078-.2071,1.3168,1.3168,0,0,1,.7078.2071,2.037,2.037,0,0,0,1.0185.2762v-.6732A1.3762,1.3762,0,0,1,23.8419,26.8718Z" fill="#fff6e9"/><path d="M16.7888,29.0139a2.016,2.016,0,0,0-2.037,0,1.4445,1.4445,0,0,1-.7078.2072,1.3162,1.3162,0,0,1-.7077-.2072,2.063,2.063,0,0,0-1.0185-.2762,2.026,2.026,0,0,0-1.0185.2762,1.4,1.4,0,0,1-.7078.2072v.6663a2.0965,2.0965,0,0,0,1.0185-.2762,1.3992,1.3992,0,0,1,.7078-.2072,1.3347,1.3347,0,0,1,.7077.2072,2.0267,2.0267,0,0,0,1.0185.2762,2.0624,2.0624,0,0,0,1.0185-.2762,1.4445,1.4445,0,0,1,.7078-.2072,1.3168,1.3168,0,0,1,.7078.2072,2.037,2.037,0,0,0,1.0185.2762v-.6732A1.3762,1.3762,0,0,1,16.7888,29.0139Z" fill="#fff6e9"/></svg>